<svg xmlns="http://www.w3.org/2000/svg" xmlns:xlink="http://www.w3.org/1999/xlink" viewBox="0 0 122.3 123"><style>.st0{clip-path:url(#SVGID_2_)}.st1{clip-path:url(#SVGID_4_)}.st2{fill:url(#SVGID_5_)}.st3{clip-path:url(#SVGID_7_)}.st4{fill:url(#SVGID_8_)}.st5{clip-path:url(#SVGID_10_)}.st6{clip-path:url(#SVGID_12_);fill:url(#SVGID_13_)}</style><g id="Orb"><defs><path id="SVGID_1_" d="M10.4 30.5c-5.7 9.2-9.1 20.1-9.1 31.7 0 11.6 3.3 22.4 9 31.6 5.1 7 22.4 12 33.1 11.5 7.5-.3 14.6-2 21.1-4.8-25.2-7.1-43.7-30.3-43.7-57.8 0-7.6 1.4-15 4-21.7-5.7 1.9-10.9 4.9-14.4 9.5"/></defs><clipPath id="SVGID_2_"><use xlink:href="#SVGID_1_" overflow="visible"/></clipPath><g class="st0"><defs><path id="SVGID_3_" d="M.8 20.6h64.1v85.5H.8z"/></defs><clipPath id="SVGID_4_"><use xlink:href="#SVGID_3_" overflow="visible"/></clipPath><g class="st1"><linearGradient id="SVGID_5_" gradientUnits="userSpaceOnUse" x1="-51.441" y1="-20.11" x2="25.131" y2="56.463" gradientTransform="rotate(-90 50.786 0)"><stop offset=".006" stop-color="#fff"/><stop offset=".065" stop-color="#dcdcdc"/><stop offset=".164" stop-color="#a9a9a9"/><stop offset=".266" stop-color="#7c7c7c"/><stop offset=".372" stop-color="#565656"/><stop offset=".48" stop-color="#373737"/><stop offset=".594" stop-color="#1f1f1f"/><stop offset=".713" stop-color="#0d0d0d"/><stop offset=".842" stop-color="#030303"/><stop offset="1"/></linearGradient><path class="st2" d="M0 20h65.2v87.9H0z"/></g></g><defs><path id="SVGID_6_" d="M10.2 30.7c9.2-5.7 20-9 31.6-9 28 0 51.6 19.2 58.2 45.2 3.4-7.2 5.4-15.1 5.4-23.5 0-11.6-4.9-26-12.5-32.2-9.2-5.7-20-9-31.5-9-21.7.1-40.9 11.4-51.2 28.5"/></defs><clipPath id="SVGID_7_"><use xlink:href="#SVGID_6_" overflow="visible"/></clipPath><g class="st3"><linearGradient id="SVGID_8_" gradientUnits="userSpaceOnUse" x1="5.355" y1="2.623" x2="112.172" y2="64.294"><stop offset="0" stop-color="#fff"/><stop offset=".027" stop-color="#f0f0f0"/><stop offset=".14" stop-color="#b9b9b9"/><stop offset=".256" stop-color="#878787"/><stop offset=".373" stop-color="#5e5e5e"/><stop offset=".491" stop-color="#3c3c3c"/><stop offset=".612" stop-color="#222"/><stop offset=".735" stop-color="#0f0f0f"/><stop offset=".862" stop-color="#040404"/><stop offset="1"/></linearGradient><path class="st4" d="M6.9 0h103.8v66.9H6.9z"/></g><defs><path id="SVGID_9_" d="M101.9 42.6c0 33.2-26.9 60.1-60.1 60.1-11.6 0-22.4-3.2-31.6-9 10.5 17.2 29.5 28.5 51.1 28.5 33.2 0 60.1-26.9 60.1-60.1 0-21.6-11.5-41.3-28.6-51 6.1 8.9 9.1 20 9.1 31.5"/></defs><clipPath id="SVGID_10_"><use xlink:href="#SVGID_9_" overflow="visible"/></clipPath><g class="st5"><defs><path id="SVGID_11_" d="M10 10.7h112.2v112.2H10z"/></defs><clipPath id="SVGID_12_"><use xlink:href="#SVGID_11_" overflow="visible"/></clipPath><linearGradient id="SVGID_13_" gradientUnits="userSpaceOnUse" x1="113.394" y1="129.68" x2="18.309" y2="3.497"><stop offset=".227" stop-color="#fcee21"/><stop offset=".238" stop-color="#fcee2c"/><stop offset=".443" stop-color="#fdf49a"/><stop offset=".584" stop-color="#fef9ce"/><stop offset=".65" stop-color="#fefbe1"/><stop offset="1" stop-color="#fdf6a8"/></linearGradient><path class="st6" d="M9.4 10.2h112.8V123H9.4z"/></g></g></svg>