<svg id="Layer_1" xmlns="http://www.w3.org/2000/svg" viewBox="0 0 749.3 638.1"><style>.st0{fill:#001924}</style><path class="st0" d="M749.3 638.1c-1.9 0-98.3-.2-145.1-.1-2.2-4.4-89-169.9-92-175.2C411 511.8 149.9 636.7 147 638c0 0 77.1-114.6 114-170 11-16.5 21.9-33.1 32.8-49.6-.3.1-1.5.7-3.4 1.5 2.6-1.2 4-1.9 4.1-1.9 11.4-6 154.1-80.9 161.5-85-12.5-26.3-47.3-100.3-80.9-171.5-.4-1.2-33.9-72.2-56.4-119.6-5.2-11-9.5-20.1-12.6-26.7-4.2-9-6.9-14.7-7.2-15.1h145.8c1.5 3.3 78.1 162.2 134.4 279 2 4.2 39.1 81.2 53.7 111.2 3 6.2 4.9 10.1 5.4 11 8.9 17.1 110.2 234.8 111.1 236.8zM241.5 442.3c3.6-7.8 28.2-59.7 40.4-85.7 22.9-48.7 70.8-148.7 70.4-150.3v-.1c-.1-.4-.3-1-.5-1.8C345.5 180.1 299.3 1.5 299 0 298.2 0 1.1 635.5 0 638h147s80.6-166.8 94.5-195.7zm427-55.4c2.1-.9 52.3-24.8 76.2-36.2.1-6.3 3.9-149.3 3.9-152.8-29.7 14.4-137.3 66.6-138.2 66.5 0 0 .1 0 .1-.1 2.4 5 57.8 122 58 122.6z"/></svg>